<?xml version="1.0" encoding="UTF-8" standalone="no"?>
<!-- Created with Inkscape (http://www.inkscape.org/) -->

<svg
   xmlns:dc="http://purl.org/dc/elements/1.1/"
   xmlns:cc="http://creativecommons.org/ns#"
   xmlns:rdf="http://www.w3.org/1999/02/22-rdf-syntax-ns#"
   xmlns:svg="http://www.w3.org/2000/svg"
   xmlns="http://www.w3.org/2000/svg"
   xmlns:sodipodi="http://sodipodi.sourceforge.net/DTD/sodipodi-0.dtd"
   xmlns:inkscape="http://www.inkscape.org/namespaces/inkscape"
   width="210mm"
   height="297mm"
   viewBox="0 0 210 297"
   version="1.1"
   id="svg8"
   inkscape:version="0.92.4 (5da689c313, 2019-01-14)"
   sodipodi:docname="localization.svg">
  <defs
     id="defs2" />
  <sodipodi:namedview
     id="base"
     pagecolor="#ffffff"
     bordercolor="#666666"
     borderopacity="1.0"
     inkscape:pageopacity="0.0"
     inkscape:pageshadow="2"
     inkscape:zoom="0.64"
     inkscape:cx="413.27172"
     inkscape:cy="555.54016"
     inkscape:document-units="mm"
     inkscape:current-layer="layer1"
     showgrid="false"
     showborder="false"
     inkscape:window-width="1920"
     inkscape:window-height="1017"
     inkscape:window-x="-8"
     inkscape:window-y="-8"
     inkscape:window-maximized="1" />
  <metadata
     id="metadata5">
    <rdf:RDF>
      <cc:Work
         rdf:about="">
        <dc:format>image/svg+xml</dc:format>
        <dc:type
           rdf:resource="http://purl.org/dc/dcmitype/StillImage" />
        <dc:title></dc:title>
      </cc:Work>
    </rdf:RDF>
  </metadata>
  <g
     inkscape:label="Layer 1"
     inkscape:groupmode="layer"
     id="layer1">
    <path
       style="fill:#a05a2c;stroke-width:0.26458332"
       id="path18"
       d="m 11.358825,66.773644 c 0.27218,-2.353202 0.328259,-4.724805 0.380619,-7.091021 0.04748,-2.581087 0.0435,-5.162669 0.04185,-7.744066 -0.01544,-1.668775 0.01058,-3.338769 -0.0497,-5.006856 0,0 5.47742,-2.791542 5.47742,-2.791542 v 0 c -0.0556,1.684909 -0.03071,3.371376 -0.04601,5.056862 -0.0061,2.588403 -0.01561,5.176925 -0.05666,7.765047 -0.04577,2.361684 -0.103543,4.723474 -0.254278,7.081253 0,0 -5.493232,2.730323 -5.493232,2.730323 z"
       inkscape:connector-curvature="0" />
    <path
       style="fill:#a05a2c;stroke-width:0.26458332"
       id="path20"
       d="m 17.902262,64.34765 c -0.120842,-1.731632 -0.234052,-3.463475 -0.309405,-5.197716 -0.09649,-1.110022 -0.291606,-2.207347 -0.399996,-3.316179 -0.07425,-0.840758 -0.08322,-1.685181 -0.0891,-2.528593 -0.0028,-0.823505 -4.76e-4,-1.647016 6.09e-4,-2.470523 0.001,-0.82635 0.0013,-1.652699 0.0015,-2.479048 -0.0028,-0.655061 0.0066,-1.310217 -0.0058,-1.96519 0,0 5.487603,-2.796077 5.487603,-2.796077 v 0 c -0.01225,0.657018 -0.0031,1.314209 -0.006,1.971315 -9.8e-5,0.826521 -2.38e-4,1.653042 -0.0011,2.479566 -8.99e-4,0.822312 -0.0027,1.644627 -0.0021,2.466941 0.0026,0.828902 0.005,1.65857 0.0605,2.486004 0.08843,1.125926 0.265582,2.2407 0.375495,3.364425 0.05044,1.71798 0.125153,3.437824 0.325493,5.145802 0,0 -5.437719,2.839273 -5.437719,2.839273 z"
       inkscape:connector-curvature="0" />
    <path
       style="fill:#88aa00;stroke-width:0.26458332"
       id="path22"
       d="M 7.8194166,56.545776 C 6.4880132,56.676975 5.1703739,56.850404 3.8330446,56.749465 3.0110313,56.715067 2.2117822,56.509403 1.456668,56.188443 0.72471377,55.975466 0.06301963,55.681366 -0.51887895,55.185862 -1.0200836,54.614915 -1.4112578,53.955423 -1.6587989,53.237608 -1.992234,52.438291 -2.147802,51.599909 -2.2370169,50.743736 c -0.080559,-1.022072 -0.081884,-2.048635 -0.088158,-3.07331 -0.056869,-0.946291 0.1684201,-1.850679 0.486052,-2.732085 0.4113703,-0.994762 1.13196943,-1.800799 1.84791,-2.586096 0.77756195,-0.810646 1.6720589,-1.491284 2.6154779,-2.095285 2.594252,-1.587606 5.042807,-3.601601 7.97517,-4.478489 0.8281,-0.291862 1.659689,-0.590603 2.511658,-0.808058 2.487778,-0.442995 4.137752,-2.185453 -4.2806309,3.356186 -0.1571879,0.103474 -0.3763648,0.0039 -0.5645526,0.0036 C 7.3868612,38.409446 6.5581598,38.138242 5.7213386,37.91382 4.651122,37.526176 3.6962204,36.876942 2.7216684,36.296904 1.7097971,35.673456 0.79200176,34.93072 0.05522513,33.997622 -0.57650432,33.114281 -1.03479,32.154772 -1.3024945,31.105189 c -0.173399,-0.992701 -0.2296019,-2.006846 -0.165469,-3.011839 0.1887968,-1.313606 0.88112019,-2.468894 1.52521771,-3.604563 0.79123453,-1.437505 1.85625959,-2.689868 2.95770459,-3.895515 1.1677592,-1.178782 2.4005651,-2.276746 3.8015097,-3.16873 3.5897455,-2.235165 5.0326065,-3.59257 8.5563245,-3.768877 3.54783,-0.05999 2.126034,-0.31744 -3.728141,3.344826 -0.6653,-0.753054 -0.344219,-1.554414 0.12132,-2.31076 0.671398,-0.924726 1.475442,-1.746044 2.302498,-2.531147 2.573156,-2.2127445 5.535787,-4.0660994 8.696648,-5.3003375 1.808746,-0.7108584 3.708796,-1.1704783 5.602628,-1.593088 2.147909,-0.5595495 4.346009,-0.9196302 6.566548,-0.9419071 1.843829,0.00625 3.664744,0.3624794 5.450062,0.795705 1.410978,0.4070797 2.670331,0.9269058 3.514884,2.1704284 0.593543,1.0746279 0.56991,2.1893122 0.136303,3.3071582 -0.610611,1.30542 -1.672135,2.271865 -2.76551,3.170489 -2.404993,1.678813 -5.088829,3.061491 -7.611171,4.481909 -1.587425,0.893934 3.159308,-1.815187 4.741037,-2.719157 0.147749,-0.08444 -0.29269,0.173688 -0.439036,0.260532 -0.202901,-0.03145 -0.301442,0.267587 -0.489688,0.287713 -0.0164,0.0017 -0.506587,-0.344192 0.224975,-0.344105 0.865074,0.01497 1.730304,0.0073 2.595446,0.0065 1.243187,-0.118509 2.354511,0.182533 3.46937,0.702801 1.021467,0.605837 2.050402,1.226193 2.932361,2.027268 0.822098,0.737555 1.179269,1.754847 1.392584,2.806678 0.236419,1.22857 -0.09258,2.312948 -0.691099,3.375412 -2.282867,3.103704 -6.198529,4.655949 -9.397886,6.47217 -1.684383,0.813541 -3.51694,1.194462 -5.304732,1.69468 -0.377695,0.218758 -2.166689,0.349833 -2.382657,0.654339 5.154363,-3.935915 3.513468,-3.677957 7.26436,-3.67401 1.395724,-0.05497 2.77596,0.03214 4.150709,0.274183 1.465257,0.314526 2.849883,0.82418 4.156101,1.55426 1.125744,0.700344 2.07613,1.668796 2.820668,2.760782 0.459819,0.78464 0.878215,1.530379 0.938014,2.449848 0.02143,0.822854 -0.145926,1.617007 -0.458568,2.374035 -0.322077,0.731451 -0.836647,1.360117 -1.407795,1.911615 -0.741812,0.676891 -1.502537,1.327062 -2.312157,1.921245 -1.05437,0.738391 -2.084649,1.510189 -3.166099,2.208985 -2.956634,1.921648 -5.987651,3.559961 -9.192377,4.958514 -1.793914,0.622022 -3.53442,1.386128 -5.287541,2.113936 -1.013013,0.457158 -2.071595,0.784066 -3.135985,1.093695 0,0 4.794054,-3.704447 4.794054,-3.704447 v 0 c 1.04828,-0.333947 2.089068,-0.687441 3.095234,-1.13661 1.765715,-0.730594 3.524623,-1.477106 5.31305,-2.150552 2.281613,-1.010264 8.087254,-4.202211 -1.28551,1.030488 1.108189,-0.644043 2.12308,-1.425027 3.16515,-2.168646 0.826677,-0.551448 1.593847,-1.168136 2.321816,-1.844707 0.579276,-0.48405 1.112142,-1.022258 1.507064,-1.668754 0.316471,-0.68631 0.593204,-1.359294 0.573958,-2.135478 0.03259,-0.884121 -0.345374,-1.386131 -0.745622,-2.152073 -0.686398,-1.020818 -1.58401,-1.902024 -2.651548,-2.521649 -1.268664,-0.667821 -2.617047,-1.129181 -4.03011,-1.386866 -1.367462,-0.184753 -2.737421,-0.227619 -4.116607,-0.179906 -3.664688,0.02813 -3.325146,0.412501 2.546522,-3.764111 0.684104,0.07571 1.679715,-0.477044 2.362459,-0.529873 1.77672,-0.457552 3.559562,-0.933884 5.201687,-1.77591 -8.627456,5.103056 -3.605601,2.367696 -1.977993,0.907608 0.325202,-0.291729 0.756216,-0.788389 1.052875,-1.119137 0.621083,-0.907404 1.054994,-1.827797 0.862851,-2.956871 -0.154164,-0.936968 -0.431419,-1.822947 -1.183727,-2.458864 -0.850749,-0.739154 -1.82214,-1.345088 -2.815889,-1.871527 -1.083582,-0.434738 -2.166929,-0.577473 -3.334808,-0.487475 -0.887283,0.0062 -1.778151,0.03169 -2.663058,-0.04304 -0.764495,-0.15179 -1.335632,-0.822724 -0.43453,-1.314347 3.454836,-1.944441 11.483506,-6.642517 1.535186,-0.868516 -0.203766,0.118265 0.405744,-0.239613 0.610172,-0.356736 0.997926,-0.571751 0.257132,-0.119278 1.224767,-0.728696 1.086776,-0.815167 2.173266,-1.699865 2.854404,-2.897668 0.531069,-0.941559 0.648475,-1.743221 0.153659,-2.741042 C 37.870048,9.3233932 36.594571,8.9122765 35.381184,8.5815637 33.626316,8.1886297 31.845377,7.8528565 30.038167,7.9002823 c -2.193902,0.095018 -4.355453,0.475034 -6.479692,1.0301025 -1.890414,0.4592294 -3.79114,0.9302189 -5.578862,1.7126302 -2.276619,1.085924 -0.783908,0.396309 3.923669,-2.3552753 0.197466,-0.1154192 -0.405319,0.2135714 -0.596573,0.3390162 -0.553014,0.3627249 -1.061062,0.8058547 -1.573978,1.2209568 -0.850827,0.7222713 -1.611077,1.5463423 -2.338941,2.3913803 -0.23967,0.306223 -0.934072,0.96939 -0.601341,1.379365 -4.922041,3.721983 -3.036406,3.56179 -6.354595,3.676856 -0.5218587,0.04908 -1.033017,0.104073 -1.539125,0.249508 -1.9823924,0.569661 -4.8921476,2.844689 3.61225,-2.314684 -1.452754,0.805432 -2.6875789,1.867107 -3.8796061,3.017798 -1.1195005,1.146911 -2.1876536,2.372663 -2.9979609,3.760835 -0.6350945,1.060842 -1.2885153,2.148567 -1.6110027,3.351015 -0.1185421,0.938533 -0.041525,1.895271 0.079382,2.831028 0.2126197,0.973341 0.6232025,1.853364 1.2092241,2.662798 0.710992,0.861539 1.5892158,1.543079 2.5486003,2.113772 0.9377997,0.549132 1.8547638,1.180783 2.9141533,1.468737 0.821172,0.207404 1.638379,0.334719 2.48877,0.29668 3.311264,0.270576 -2.925344,3.682002 -5.0195527,3.985021 -0.8334713,0.262684 -1.6670194,0.52691 -2.4836553,0.838867 -0.2806841,0.119203 -1.0899656,0.545619 -0.8268743,0.391427 1.5962442,-0.935534 3.1969236,-1.863515 4.8005476,-2.786342 0.1546497,-0.089 -0.3004172,0.192696 -0.4533133,0.28467 -0.1555395,0.09356 -0.318013,0.175474 -0.4718264,0.271851 -0.1620028,0.101508 -0.3166708,0.214276 -0.4750059,0.321414 -0.9412703,0.585882 -1.8595322,1.186616 -2.6732325,1.948751 -0.7032607,0.737063 -1.4253805,1.47851 -1.9240336,2.375498 -0.3630128,0.791707 -0.6261526,1.639237 -0.5942224,2.519431 -0.00122,1.007454 -0.00511,2.016104 0.062663,3.02183 0.071584,0.812708 0.1957808,1.61344 0.5292352,2.366354 0.18714,0.609531 0.5157237,1.178862 0.9582414,1.639004 0.5625163,0.410154 1.2158692,0.616815 1.8687156,0.842727 0.7352014,0.235783 1.4735055,0.417015 2.2523941,0.42055 1.3320415,0.04673 2.6465365,-0.176517 3.9752385,-0.237863 0,0 -4.9684417,3.609784 -4.9684414,3.609785 z"
       inkscape:connector-curvature="0" />
    <path
       style="fill:#6c6753;stroke-width:0.26458332"
       id="path24"
       d="m 121.32181,175.96217 c 0.22363,-1.85744 0.30106,-3.72716 0.47436,-5.58967 0.20945,-2.33835 0.4733,-4.67186 0.74283,-7.00406 0.27208,-2.70284 0.60484,-5.39928 0.95992,-8.09237 0.46314,-3.26745 0.97978,-6.52484 1.61746,-9.76293 0.74008,-3.27054 1.468,-6.5418 2.14993,-9.82515 0.67658,-3.20023 1.28199,-6.41556 1.85543,-9.63581 0.55751,-3.11662 0.93191,-6.25875 1.26974,-9.40532 0.32382,-3.13781 0.40036,-6.29262 0.45012,-9.44432 0.0579,-2.62785 -0.0438,-5.25755 0.047,-7.884332 0.095,-1.719535 0.21436,-3.43739 0.28021,-5.158404 0.006,-0.186967 0.0111,-0.373933 0.0166,-0.560898 0,0 5.46702,-2.76193 5.46702,-2.76193 v 0 c -0.007,0.190122 -0.0149,0.380241 -0.0223,0.57036 -0.0862,1.731521 -0.22587,3.459295 -0.34371,5.188802 -0.12865,2.628045 -0.033,5.262042 -0.0977,7.892202 -0.0471,3.16943 -0.13308,6.34113 -0.43725,9.49809 -0.32786,3.1594 -0.69003,6.31519 -1.2511,9.44323 -0.57166,3.22702 -1.17822,6.44828 -1.85507,9.65494 -0.68193,3.28295 -1.38882,6.55813 -2.15455,9.82265 -0.6555,3.21863 -1.15073,6.46269 -1.61031,9.71451 -0.34939,2.68448 -0.66632,5.37377 -0.93233,8.06782 -0.2637,2.32492 -0.53113,4.65022 -0.7282,6.98171 -0.16824,1.85284 -0.27563,3.7071 -0.39597,5.56366 0,0 -5.50215,2.72722 -5.50215,2.72722 z"
       inkscape:connector-curvature="0" />
    <path
       style="fill:#6c6753;stroke-width:0.26458332"
       id="path26"
       d="m 139.67754,94.692233 c 0.38691,1.521873 0.80973,3.034298 1.241,4.544042 0.32458,1.208825 0.68394,2.409715 0.89524,3.644715 0.20055,1.28626 0.37022,2.57634 0.55581,3.86467 0.25181,1.53711 0.46478,3.08047 0.71934,4.61703 0.2525,1.80043 0.56805,3.59128 0.78036,5.39718 0.28064,1.63195 0.40403,3.28317 0.60482,4.92483 0.1918,1.68303 0.3947,3.365 0.57799,5.04919 0.24261,1.84999 0.53141,3.69346 0.77942,5.54264 0.26266,1.81122 0.63344,3.60328 0.99813,5.39592 0.41444,1.98138 0.84293,3.96026 1.21563,5.95001 0.39692,2.08689 0.9429,4.13931 1.47359,6.19465 0.58886,2.21645 1.13676,4.44407 1.63869,6.68184 0.49947,1.90206 0.79213,3.84678 1.20074,5.76805 0.15184,1.03248 0.53982,1.99793 0.87152,2.97911 0.11594,0.52475 0.0851,0.26669 0.10114,0.7731 0,0 -5.52015,2.73696 -5.52015,2.73696 v 0 c 0.11263,-0.32402 0.085,-0.14255 0.0391,-0.54929 -0.32477,-1.01069 -0.74308,-1.99631 -0.87267,-3.06044 -0.37625,-1.93068 -0.63682,-3.88336 -1.13728,-5.78899 -0.49714,-2.23069 -1.05962,-4.44683 -1.65165,-6.65403 -0.52388,-2.07054 -1.08366,-4.13273 -1.48746,-6.23177 -0.37298,-1.98503 -0.80704,-3.95829 -1.22917,-5.93329 -0.36216,-1.80691 -0.75486,-3.6081 -1.01672,-5.43342 -0.23762,-1.85431 -0.53823,-3.69978 -0.78842,-5.55249 -0.18529,-1.67854 -0.40037,-3.35314 -0.59038,-5.03094 -0.21597,-1.64368 -0.28954,-3.30583 -0.59544,-4.93911 -0.19521,-1.79714 -0.50828,-3.57695 -0.76743,-5.36536 -0.26881,-1.53524 -0.48582,-3.07938 -0.74108,-4.61698 -0.20802,-1.2806 -0.35958,-2.57151 -0.56294,-3.85277 -0.19404,-1.21719 -0.54919,-2.39656 -0.85106,-3.58995 -0.42646,-1.50586 -0.80614,-3.025221 -1.26063,-4.523316 0,0 5.37999,-2.941791 5.37999,-2.941791 z"
       inkscape:connector-curvature="0" />
    <path
       style="fill:#6c6753;stroke-width:0.26458332"
       id="path28"
       d="m 113.28987,118.17828 c 2.1293,-0.36066 4.20693,-0.97442 6.28212,-1.56212 2.92739,-0.8012 5.8317,-1.68831 8.79018,-2.36893 3.21571,-0.74793 6.46407,-1.33536 9.7415,-1.72996 3.07601,-0.25675 6.15219,-0.51864 9.23469,-0.68761 2.47717,-0.12176 4.95747,-0.149 7.43714,-0.16725 1.44123,-0.0143 2.88626,-0.11464 4.28814,0.2732 0.86332,0.24298 1.69988,0.61329 2.41039,1.16432 0.50545,0.3616 1.10058,0.54276 1.63245,0.86402 -0.13033,-0.40698 0.25956,0.42613 0.27336,0.29322 0.007,-0.0713 -0.0124,-0.23361 -0.0763,-0.20112 -1.77911,0.90446 -3.44073,2.03244 -5.23704,2.90225 -0.11486,0.0556 0.0249,-0.25411 0.0314,-0.38157 0.008,-0.15049 0.008,-0.30129 0.0115,-0.45193 0.0148,-1.15033 -0.004,-2.30073 -0.0153,-3.451 -0.002,-0.16734 -0.002,-0.33469 -0.004,-0.50201 -0.002,-0.12455 -0.005,-0.24909 -0.009,-0.37358 -0.002,-0.0717 -0.005,-0.14348 -0.0105,-0.21508 -0.001,-0.0199 -0.0274,-0.0511 -0.009,-0.0592 5.67205,-2.52824 5.406,-4.37407 5.52047,-1.79555 0.0889,1.81515 0.33859,3.61521 0.54897,5.41876 0.0273,0.21029 0.0523,0.42088 0.0818,0.63088 0.0189,0.13466 0.0393,0.26916 0.0632,0.40302 0.011,0.0613 0.0962,0.15253 0.0415,0.1823 -5.54718,3.01545 -4.68487,4.66646 -5.66055,2.45924 0,0 5.36135,-3.0263 5.36135,-3.0263 v 0 c 0.99699,2.12424 0.30479,0.41504 -5.15054,3.46724 -0.01,0.005 -0.028,-0.17194 -0.0726,-0.64965 -0.02,-0.2147 -0.0393,-0.42947 -0.059,-0.64421 -0.18098,-1.80822 -0.4326,-3.60809 -0.58395,-5.41919 -0.024,-0.20774 -0.24271,-0.50229 -0.0721,-0.62324 6.30768,-4.47129 5.45044,-5.05125 5.47438,-2.03939 0.002,1.15164 0.008,2.30326 0.0288,3.45474 0.001,0.20268 0.006,0.87829 0.005,0.87846 -8.58371,6.29601 -3.61882,4.72188 -5.65601,3.10326 -0.55539,-0.30313 -1.15806,-0.52429 -1.65348,-0.92807 -0.68659,-0.46219 -1.45047,-0.78695 -2.25792,-0.97319 -1.3669,-0.26571 -2.75707,-0.18995 -4.14306,-0.19783 -2.46104,0.01 -4.92284,0.0357 -7.38109,0.16363 -3.06553,0.17347 -6.12821,0.4142 -9.18482,0.70208 -3.26621,0.42478 -6.50524,1.02456 -9.71009,1.78717 -2.95551,0.71991 -5.87033,1.59272 -8.80031,2.40879 -2.12476,0.59714 -4.25209,1.22973 -6.43927,1.55573 0,0 4.92789,-3.66432 4.92789,-3.66432 z"
       inkscape:connector-curvature="0" />
    <path
       style="fill:#6c6753;stroke-width:0.26458332"
       id="path30"
       d="m 112.50514,122.74905 c -0.46514,-1.63093 -0.72157,-3.30861 -1.06998,-4.96587 -0.13873,-0.49727 -0.14653,-1.09255 -0.42051,-1.55045 -0.15029,-0.25117 -0.19484,0.054 -0.18453,0.0487 1.75494,-0.90205 3.4788,-1.86331 5.21821,-2.79496 -0.0555,0.10205 -0.13171,0.19533 -0.16653,0.30616 -0.45219,1.43914 -0.20001,3.58103 -0.14464,5.07459 0.0924,1.97921 0.12637,3.96151 0.2481,5.9393 0.007,0.0806 0.0946,0.20509 0.0225,0.24184 -1.81264,0.92348 -3.61832,1.89035 -5.53666,2.56746 -0.18497,0.0653 -0.0667,-0.38683 -0.0893,-0.58168 -0.0988,-0.85108 -0.12131,-1.71115 -0.15403,-2.56638 -0.0585,-1.47228 -0.0494,-2.94663 -0.11073,-4.41872 -0.005,-0.0332 -0.0457,-0.0854 -0.0153,-0.0997 5.92619,-2.8035 5.50642,-4.4058 5.49368,-1.6488 0,0 -5.47168,2.78898 -5.47168,2.78898 v 0 c -0.001,-0.14751 -0.002,-0.29502 -0.003,-0.44253 -0.002,-0.13167 -0.11695,-0.32412 -0.006,-0.395 5.58756,-3.56892 5.7627,-5.19505 5.4843,-2.99912 -0.0463,1.47777 -0.011,2.95738 0.0294,4.43482 0.0376,0.82833 0.0687,1.65754 0.17026,2.48127 0.0206,0.16674 0.21489,0.40157 0.0773,0.49804 -1.70216,1.19379 -3.53082,2.2001 -5.35268,3.20174 -0.0762,0.0419 0.002,-0.17397 0.004,-0.26095 0.005,-1.99488 -0.0636,-3.98918 -0.14935,-5.98198 -0.0845,-1.89056 -0.25643,-3.79836 0.0139,-5.6815 4.62102,-2.68723 5.68469,-5.21331 6.42022,-1.03808 0.3226,1.63396 0.55088,3.29457 1.07014,4.88175 0,0 -5.37661,2.96114 -5.37661,2.96114 z"
       inkscape:connector-curvature="0" />
    <path
       style="fill:#6c6753;stroke-width:0.26458332"
       id="path32"
       d="m 127.7044,142.789 c 1.19296,-1.6095 2.25796,-3.30965 3.37244,-4.97389 1.10448,-1.51712 2.16957,-3.06153 3.22296,-4.61435 0.57079,-0.9065 1.1727,-1.79132 1.82647,-2.63973 0.26963,-0.33654 0.54634,-0.64665 0.89813,-0.89696 0,0 5.72026,-2.28886 5.72026,-2.28886 v 0 c -0.32114,0.27566 -0.73576,0.4007 -0.94883,0.79894 -0.7715,0.74592 -1.3137,1.7128 -1.91499,2.59299 -1.07069,1.54896 -2.10915,3.12116 -3.24828,4.62174 -1.12257,1.64175 -2.1887,3.31952 -3.29433,4.9723 0,0 -5.63383,2.42782 -5.63383,2.42782 z"
       inkscape:connector-curvature="0" />
    <path
       style="fill:#6c6753;stroke-width:0.26458332"
       id="path34"
       d="m 134.46329,130.36262 c 1.80992,1.44774 3.64832,2.85686 5.49454,4.25761 1.70561,1.22265 3.43732,2.40008 5.07318,3.71665 0,0 -5.1543,3.23326 -5.1543,3.23326 v 0 c -1.61757,-1.31827 -3.33918,-2.49091 -5.01714,-3.72943 -1.86511,-1.41645 -3.71495,-2.85305 -5.60195,-4.24019 0,0 5.20567,-3.2379 5.20567,-3.2379 z"
       inkscape:connector-curvature="0" />
    <path
       style="fill:#6c6753;stroke-width:0.26458332"
       id="path36"
       d="m 142.28501,146.12488 c -1.08263,2.0588 -2.31934,4.029 -3.53663,6.00912 -0.75745,1.22558 -1.45276,2.48463 -2.07267,3.78462 0,0 -5.53295,2.51909 -5.53295,2.51909 v 0 c 0.61834,-1.33024 1.32217,-2.61408 2.0904,-3.8644 1.18771,-1.95839 2.47275,-3.8698 3.45346,-5.94479 0,0 5.59839,-2.50364 5.59839,-2.50364 z"
       inkscape:connector-curvature="0" />
    <path
       style="fill:#6c6753;stroke-width:0.26458332"
       id="path38"
       d="m 132.43669,150.16368 c 2.61983,0.34135 5.15092,1.09369 7.67872,1.83298 2.83365,0.92065 5.62069,1.97584 8.43827,2.94235 0.93603,0.33273 1.87795,0.63561 2.80177,1.00065 0,0 -5.06001,3.39162 -5.06001,3.39162 v 0 c -0.90468,-0.36151 -1.8228,-0.68231 -2.7388,-1.01418 -2.78489,-1.00714 -5.55881,-2.04748 -8.38444,-2.93743 -2.53421,-0.72487 -5.08442,-1.45641 -7.7254,-1.65929 0,0 4.98989,-3.5567 4.98989,-3.5567 z"
       inkscape:connector-curvature="0" />
    <path
       style="fill:#ff9955;stroke-width:0.26458332"
       id="path40"
       d="m -0.52444906,256.49106 c 0.94532377,-1.96383 1.95683566,-3.89751 3.01483956,-5.80309 1.462009,-2.51851 3.0374556,-4.96847 4.5419436,-7.46165 1.6593296,-2.7184 3.1316269,-5.54456 4.6641669,-8.33497 1.555556,-2.72253 3.059636,-5.47415 4.550017,-8.23281 1.318195,-2.39358 2.525222,-4.84672 3.857805,-7.23228 1.073345,-1.86143 2.045088,-3.77806 3.05522,-5.67369 0.826386,-1.52658 1.681688,-3.03829 2.474535,-4.58266 0.603846,-1.29992 1.246879,-2.58163 1.789952,-3.90865 0.986692,-2.34856 -0.78841,-0.47552 5.8219,-3.04274 0.10205,-0.0396 0.330314,1.08567 0.337513,1.12407 0.207306,1.10796 0.446614,2.2098 0.651372,3.31815 0.24062,1.3243 0.659445,2.59814 1.084657,3.87162 0.422632,1.50794 1.010402,2.96016 1.445956,4.46374 0.439745,1.62299 0.900467,3.24083 1.321242,4.86905 0.414475,1.53942 1.001683,3.02955 1.572628,4.51708 0.612163,1.55762 1.418764,3.02928 2.186937,4.51348 0.873598,1.57302 1.600322,3.21184 2.29494,4.86913 0.695846,1.67509 1.47238,3.31452 2.261989,4.9469 0.789578,1.61436 1.606846,3.21438 2.355363,4.84839 0.595911,1.25524 1.275324,2.47134 1.818857,3.75075 0.313873,0.80288 0.407041,1.66099 0.714298,2.46574 0.319437,0.59122 0.623062,1.19195 0.869794,1.8172 0,0 -5.379754,2.98443 -5.379754,2.98443 v 0 c -0.212815,-0.63231 -0.547108,-1.21764 -0.861457,-1.80447 -0.327215,-0.8013 -0.422135,-1.65046 -0.687832,-2.47038 -0.51444,-1.28492 -1.18994,-2.49718 -1.776306,-3.74968 -0.739154,-1.63359 -1.542971,-3.23464 -2.33825,-4.84155 -0.795428,-1.64152 -1.578774,-3.28966 -2.281275,-4.97363 -0.688589,-1.64192 -1.398561,-3.26996 -2.273022,-4.82427 -0.782407,-1.50192 -1.600703,-2.99179 -2.22495,-4.56878 -0.587317,-1.50659 -1.17955,-3.01989 -1.609013,-4.57953 -0.411401,-1.62427 -0.867741,-3.23762 -1.309524,-4.85358 -0.43298,-1.49412 -1.023599,-2.93518 -1.445024,-4.43328 -0.445119,-1.29618 -0.878443,-2.59512 -1.139341,-3.94347 -0.199636,-1.10806 -0.447426,-2.20742 -0.678468,-3.30892 -0.04535,-0.28365 -0.0509,-0.40434 -0.13824,-0.66502 -0.0241,-0.0719 -0.153659,-0.1708 -0.08851,-0.20965 1.755349,-1.04666 3.585281,-1.96285 5.377923,-2.94428 -0.246658,0.0513 -0.119129,-0.0117 -0.309967,0.29337 -0.598773,1.32204 -1.193864,2.64431 -1.814862,3.95685 -0.75847,1.57062 -1.658914,3.07146 -2.481323,4.60951 -1.04616,1.88986 -1.999351,3.83066 -3.083696,5.69998 -1.377414,2.3688 -2.572456,4.83729 -3.898331,7.23476 -1.487039,2.76613 -3.003413,5.51753 -4.561824,8.24409 -1.540649,2.78949 -2.997082,5.62759 -4.650895,8.35283 -1.480856,2.49047 -3.0406523,4.93225 -4.5121505,7.42809 -1.0463376,1.86688 -2.0453178,3.76657 -2.9412139,5.70928 0,0 -5.57862166,2.55454 -5.57862166,2.55454 z"
       inkscape:connector-curvature="0" />
    <path
       style="fill:#ffcc00;stroke-width:0.26458332"
       id="path42"
       d="m 16.757615,244.81843 c -0.195846,1.43757 -0.281237,2.88666 -0.339234,4.33535 -0.04368,1.10793 -0.04172,2.21671 -0.04754,3.32525 0.0016,1.01069 0.0025,2.02136 0.0027,3.03204 0.002,1.15083 -0.0037,2.30165 -0.0085,3.45247 -0.01788,1.57719 0.02713,3.15506 -0.05342,4.73059 -0.119494,1.91599 -0.362094,3.82179 -0.616208,5.72385 -0.263567,2.11826 -0.580702,4.22915 -0.782111,6.35461 -0.269365,1.94606 -0.381041,3.90816 -0.584643,5.86046 -0.168885,1.19372 -0.249638,2.39882 -0.480782,3.58273 -0.0253,0.11879 -0.04894,0.23796 -0.07591,0.35636 -0.02219,0.0974 -0.04861,0.19384 -0.07154,0.2911 -0.258217,1.09524 0.613831,-0.81103 -0.357289,-0.42336 -1.824227,0.72821 -3.4054217,1.95844 -5.1081326,2.93769 2.2183876,-1.81835 4.8589056,-2.7483 7.3006356,-4.10921 0.839914,-0.38643 1.631571,-0.86389 2.505284,-1.1734 0.827295,-0.25387 1.694444,-0.28657 2.552745,-0.30798 0.985458,0.036 1.948106,-0.1823 2.927271,-0.269 1.20948,-0.0328 2.3942,-0.27173 3.594168,-0.40614 1.123299,-0.11625 2.25371,-0.12985 3.381904,-0.14158 1.102966,-0.008 2.205979,-0.003 3.308963,-0.003 1.23257,-0.0302 2.425208,0.32808 3.629623,0.53792 1.182344,0.37912 2.438551,0.41791 3.634293,0.71692 0.0263,-0.17045 0.432316,0.2898 0.548182,0.14089 0.04492,-0.0577 0.02236,-0.25061 -0.04176,-0.2154 -1.760167,0.9665 -3.403904,2.13789 -5.176768,3.08092 -0.0907,0.0482 -0.02141,-0.20463 -0.04108,-0.30544 -0.02024,-0.10372 -0.05234,-0.20473 -0.07852,-0.3071 -0.260202,-0.77362 -0.390731,-1.57914 -0.59399,-2.36778 -0.226507,-0.82979 -0.311655,-1.68484 -0.360857,-2.54051 -0.152826,-0.89551 -0.239268,-1.80223 -0.391017,-2.69764 -0.23006,-0.95967 -0.337997,-1.93865 -0.40763,-2.92107 -0.05376,-0.88625 -0.05787,-1.77441 -0.06063,-2.66198 -0.0028,-0.89196 0.0054,-1.7839 0.0064,-2.67586 -0.0026,-0.95938 0.0024,-1.91876 0.0019,-2.87816 -0.0042,-0.96544 7.94e-4,-1.93085 1.9e-5,-2.89629 -0.03077,-0.94218 0.133985,-1.87415 0.377179,-2.78037 0.240459,-0.91219 0.446111,-1.83328 0.682773,-2.74644 0.263515,-0.99456 0.479036,-2.0015 0.707139,-3.00498 0.151386,-1.02145 0.365524,-2.03209 0.522465,-3.05267 0.14193,-1.00732 0.168576,-2.02561 0.185195,-3.04123 0.01773,-0.83508 -0.04167,-1.67031 0.09112,-2.49765 0.07829,-0.17504 0.229399,-1.74825 0.219461,-0.6645 0,0 4.921105,-3.73524 4.921105,-3.73524 v 0 c 0.816038,0.48562 0.553344,0.9102 0.395091,1.71201 -0.184978,0.7962 -0.160274,1.59081 -0.152902,2.40719 -0.01585,1.03984 -0.04537,2.08061 -0.156091,3.11544 -0.143698,1.03447 -0.378735,2.04935 -0.506709,3.08552 -0.192746,1.02196 -0.478854,2.02439 -0.684284,3.0443 -0.282472,0.89717 -0.443087,1.82946 -0.678249,2.73984 -0.24833,0.85697 -0.481772,1.73307 -0.457398,2.63376 -7.94e-4,0.96545 0.0043,1.93089 -6e-6,2.89635 -7.93e-4,0.95928 0.0042,1.91852 -1.8e-5,2.8778 -5.29e-4,0.89029 0.0043,1.78059 2.64e-4,2.67091 -5.29e-4,0.87744 -0.0026,1.7553 0.03574,2.63213 0.05305,0.96049 0.141774,1.91929 0.37352,2.85583 0.182478,0.91507 0.226838,1.85383 0.437179,2.76583 0.03418,0.81692 0.09214,1.6361 0.301078,2.43027 0.204282,0.78211 0.3376,1.57867 0.593058,2.34675 0.822695,2.54995 -0.838708,1.63962 -4.934027,4.35097 -0.05043,0.0334 -0.59558,-0.40442 -0.718989,-0.29993 -1.199976,-0.23387 -2.411235,-0.41132 -3.598593,-0.7107 -1.183843,-0.22021 -2.36587,-0.49948 -3.580082,-0.44011 -1.101127,-0.003 -2.202302,-0.003 -3.303378,0.01 -1.115383,0.0193 -2.232263,0.0531 -3.34049,0.19058 -1.198582,0.15107 -2.392252,0.33443 -3.600172,0.39907 -0.98738,0.11737 -1.969822,0.27329 -2.967963,0.25249 -0.826348,0.0496 -1.654765,0.13795 -2.422797,0.47143 -0.83562,0.37817 -1.644412,0.81328 -2.464242,1.22415 -2.1759922,1.10157 -6.1543156,3.4041 3.239584,-1.97027 -4.5149234,2.61141 -4.2911769,4.88225 -6.0127479,2.50798 -0.019979,-0.0275 0.067536,0.06 0.094361,0.039 0.048392,-0.0378 0.053758,-0.11086 0.072532,-0.1693 0.067232,-0.20934 0.092897,-0.43088 0.1799719,-0.63461 0.2615888,-1.17319 0.3725522,-2.36519 0.5487848,-3.55428 0.2485189,-1.94855 0.329512,-3.91718 0.6192819,-5.86218 0.1932855,-2.13318 0.5007522,-4.25061 0.7671593,-6.37527 0.256038,-1.88405 0.481062,-3.77455 0.61566,-5.67137 0.0986,-1.56046 0.0359,-3.12464 0.04543,-4.68758 -0.005,-1.14746 -0.01074,-2.29493 -0.0103,-3.4424 -0.0013,-1.01158 -0.0036,-2.02316 -10e-4,-3.03474 -0.0016,-1.11855 0.0079,-2.23759 0.05097,-3.35537 0.06773,-1.45525 0.163652,-2.90882 0.295664,-4.35973 0,0 5.502154,-2.72722 5.502154,-2.72722 z"
       inkscape:connector-curvature="0" />
    <path
       style="fill:#ffcc00;stroke-width:0.26458332"
       id="path44"
       d="m 19.554541,285.16334 c -0.121126,-1.38968 -0.248419,-2.77861 -0.315124,-4.17214 -0.0054,-1.13157 -0.07496,-2.2498 -0.23089,-3.36997 -0.139644,-0.91527 -0.204442,-1.83846 -0.229081,-2.76323 -0.02272,-0.99788 -0.01618,-1.99604 -0.0169,-2.99408 0.0072,-0.96165 -0.03011,-1.92384 0.03735,-2.88361 0.0937,-1.06717 0.33043,-2.10571 0.656214,-3.12354 0.279473,-0.94663 0.872477,-1.72023 1.481142,-2.47613 2.135625,-2.65785 3.057887,-2.51549 7.147665,-4.8271 0.87507,-0.21633 1.662428,0.0798 2.316917,0.65593 0.672983,0.61876 0.955969,1.47703 1.250902,2.31418 0.275551,0.81915 0.334709,1.68369 0.509895,2.52539 0.196,0.92331 0.236442,1.86599 0.40714,2.79354 0.182817,0.86656 0.269367,1.74686 0.317016,2.62977 0.03504,0.83135 0.03342,1.66365 0.03368,2.49555 -0.05071,0.86241 0.03894,1.70821 0.159708,2.55987 0.143322,0.97531 0.172538,1.95879 0.325763,2.93243 0.186814,0.89729 0.213696,1.81563 0.339341,2.72032 0.131797,0.77898 0.358633,1.55776 0.262234,2.35156 0,0 -5.597228,2.59228 -5.597228,2.59228 v 0 c 0.433387,-0.4141 -0.04683,-1.52701 -0.09312,-2.06761 -0.163632,-0.90011 -0.137576,-1.82652 -0.330147,-2.72508 -0.162251,-0.97697 -0.221256,-1.95715 -0.33354,-2.94058 -0.127677,-0.87719 -0.280908,-1.74175 -0.208912,-2.63326 7.94e-4,-0.82341 0.0039,-1.64703 -0.01982,-2.47018 -0.03388,-0.85772 -0.09716,-1.71516 -0.271087,-2.5577 -0.176308,-0.92302 -0.236723,-1.85401 -0.405979,-2.77788 -0.176409,-0.81833 -0.245893,-1.6509 -0.472325,-2.45789 -0.249985,-0.72945 -0.4689,-1.49859 -1.081945,-2.01221 -0.599755,-0.41489 -1.271589,-0.42994 -1.928607,-0.10953 1.641351,-0.9563 3.282701,-1.9126 4.924052,-2.86891 -0.319154,0.1542 -0.406535,0.17009 -0.678657,0.41067 -0.358174,0.31665 -0.570209,0.74498 -0.922631,1.06692 -0.6047,0.6957 -1.237223,1.40078 -1.581603,2.266 -0.329882,0.98138 -0.630567,1.96343 -0.712927,3.00306 -0.125198,0.93654 -0.03405,1.88685 -0.06618,2.82993 -0.0019,0.99219 -0.0011,1.98445 0.01399,2.97653 0.02482,0.90467 0.06341,1.80989 0.192308,2.70688 0.153851,1.14022 0.271513,2.27425 0.242051,3.42773 0.05562,1.37782 0.136236,2.75619 0.319774,4.12377 0,0 -5.440454,2.84832 -5.440454,2.84832 z"
       inkscape:connector-curvature="0" />
    <path
       style="fill:#ffcc00;stroke-width:0.26458332"
       id="path46"
       d="m 28.674517,238.67624 c -0.377137,1.26779 -0.525814,2.67762 0.167595,3.85607 0.635096,0.68302 1.555015,0.44505 2.307744,0.10227 2.065126,-1.26469 -0.167241,0.10849 -4.379383,2.48007 -0.15089,0.085 0.291779,-0.18658 0.43676,-0.28127 0.432483,-0.28246 0.843005,-0.57637 1.243778,-0.90206 0.751244,-0.64187 1.258469,-1.44432 1.582258,-2.36825 0.294098,-0.87549 0.156641,-1.68214 -0.266364,-2.47772 -0.448606,-0.74546 -1.119306,-1.2971 -2.01077,-1.30576 -1.851206,0.69538 -5.246137,2.64451 4.240165,-2.45116 0.142373,-0.0765 -0.253468,0.20204 -0.365691,0.31833 -0.297355,0.30815 -0.404958,0.52092 -0.635566,0.8846 -0.497536,0.8359 -0.820775,1.75603 -0.875835,2.72831 0.04439,0.4538 0.220943,0.79144 0.644473,0.96658 0,0 -5.176009,3.32858 -5.176009,3.32858 v 0 c -0.501614,-0.39952 -0.839541,-0.85581 -0.9411,-1.50861 -0.04366,-1.06275 0.270577,-2.08916 0.750619,-3.03294 0.19029,-0.33715 0.35044,-0.69289 0.568451,-1.01282 1.462833,-2.14669 4.21146,-3.82939 6.81864,-3.75491 1.002234,0.28049 1.776394,0.88078 2.305611,1.7877 0.496128,0.91232 0.756843,1.87379 0.48935,2.90925 -0.27123,1.00935 -0.687467,1.9283 -1.450682,2.66781 -0.49059,0.4983 -1.040773,0.92555 -1.645824,1.28028 -5.703808,3.34402 -3.667564,2.50356 -6.179444,3.50662 -1.057494,0.23361 -2.081987,0.12751 -2.774006,-0.80253 -0.738072,-1.33609 -0.718153,-2.83887 -0.410667,-4.30919 0,0 5.555897,-2.60925 5.555897,-2.60925 z"
       inkscape:connector-curvature="0" />
    <path
       style="fill:#0000ff;stroke-width:0.26458332"
       id="path48"
       d="m -120.11695,97.260568 c -0.47834,1.707565 -0.81551,3.449532 -1.233,5.172322 -0.40081,1.67312 -0.81086,3.34427 -1.23776,5.01096 -0.39554,1.64756 -0.85168,3.28031 -1.19816,4.9392 -0.27478,1.4431 -0.66623,2.85983 -0.95946,4.29868 -0.15976,0.91799 -0.32913,1.84131 -0.63125,2.72454 -0.12484,0.43508 -0.32001,0.84076 -0.5054,1.25155 0,0 -5.58825,2.58552 -5.58825,2.58552 v 0 c 0.1507,-0.42936 0.39636,-0.80023 0.51994,-1.23648 0.32711,-0.85754 0.56575,-1.74307 0.69774,-2.65494 0.28555,-1.44806 0.70605,-2.86398 0.98866,-4.31303 0.32282,-1.67412 0.79439,-3.31217 1.18449,-4.97113 0.44133,-1.6621 0.83767,-3.33621 1.24504,-5.00679 0.43451,-1.70287 0.77176,-3.42613 1.1871,-5.133244 0,0 5.53031,-2.667158 5.53031,-2.667158 z"
       inkscape:connector-curvature="0" />
    <path
       style="fill:#0000ff;stroke-width:0.26458332"
       id="path50"
       d="m -119.75723,96.793266 c 1.52839,0.949486 3.07424,1.8709 4.60832,2.811526 1.52754,0.934938 3.1134,1.768218 4.70383,2.589598 1.71679,0.87597 3.48103,1.65508 5.22454,2.476 1.6151,0.73538 3.10182,1.67434 4.53899,2.7071 1.092445,0.80524 2.080021,1.73529 3.13991,2.58066 0.87235,0.66391 1.661099,1.40986 2.313416,2.29118 0.431538,0.66463 0.787527,1.36746 1.15239,2.06915 0.303242,0.6196 0.364226,1.27156 -0.052,1.84267 -2.869864,2.27451 -4.603068,2.85451 -7.427876,3.72377 -0.90425,0.37373 -1.8105,0.74312 -2.7217,1.09948 -1.06296,0.51772 -2.24079,0.74476 -3.37168,1.07583 -1.5255,0.39749 -3.06127,0.75538 -4.58423,1.16304 -1.52001,0.45051 -3.01629,0.97552 -4.53733,1.42051 -1.29576,0.50307 -2.67511,0.71944 -4.02938,1.00538 -1.31125,0.28613 -2.64563,0.45419 -3.96051,0.71781 -1.28001,0.21146 -2.55698,0.43982 -3.84024,0.63367 -1.17401,0.19791 -2.31064,0.53643 -3.46558,0.8132 -0.29968,0.1029 -0.62198,0.0832 -0.92686,0.15508 -0.62495,0.14741 -0.71991,0.36318 -1.15892,-0.22359 -0.23507,-0.63478 -0.14206,-1.32668 -0.11637,-1.98962 0,0 5.48492,-2.7685 5.48492,-2.7685 v 0 c -0.0193,0.51748 -0.007,1.05502 -0.0774,1.5623 -0.009,-0.0245 -0.0416,-0.0527 -0.026,-0.0735 0.18695,-0.24969 1.39967,-0.20206 1.69335,-0.38719 1.15101,-0.29688 2.30835,-0.56256 3.48177,-0.75782 1.27772,-0.20814 2.55572,-0.41543 3.82944,-0.64636 1.32102,-0.22425 2.63909,-0.45782 3.95119,-0.73122 1.34541,-0.28833 2.69613,-0.55499 3.9892,-1.03962 1.51097,-0.47346 3.01683,-0.9646 4.54116,-1.39389 1.5321,-0.39087 3.06745,-0.76941 4.59228,-1.18819 1.1362,-0.32167 2.2811,-0.62787 3.350983,-1.13825 0.912194,-0.37536 1.829904,-0.74143 2.759747,-1.0703 2.353662,-0.76275 6.239629,-2.36671 -3.166403,2.29827 0.644501,-0.14747 0.691994,-0.46433 0.442031,-1.0501 -0.344606,-0.67466 -0.675898,-1.35275 -1.083488,-1.99327 -0.62528,-0.83777 -1.39769,-1.52685 -2.22351,-2.16455 -1.03845,-0.84777 -2.00467,-1.78155 -3.09179,-2.5696 -1.4107,-1.00725 -2.88635,-1.89729 -4.46303,-2.62466 -1.75093,-0.82369 -3.5224,-1.60622 -5.24374,-2.49084 -1.60097,-0.83064 -3.19582,-1.67605 -4.73,-2.6263 -1.54274,-0.95316 -3.09486,-1.88995 -4.66122,-2.80384 0,0 5.16181,-3.305054 5.16181,-3.305054 z"
       inkscape:connector-curvature="0" />
    <path
       style="fill:#0000ff;stroke-width:0.26458332"
       id="path52"
       d="m -80.633794,156.88299 c 1.32008,-1.0756 2.667598,-2.11645 4.007461,-3.16705 0.9744,-0.79096 1.966804,-1.56194 2.997814,-2.27798 0.823166,-0.5744 1.608079,-1.2036 2.380126,-1.84466 0.55735,-0.45166 1.071575,-0.95058 1.618779,-1.41405 0.701399,-0.63145 1.420018,-1.24542 2.108943,-1.89043 0.683895,-0.71221 1.462701,-1.3208 2.205183,-1.96893 0.812139,-0.80352 1.782233,-1.40888 2.69866,-2.08115 0.862669,-0.62408 1.727692,-1.24496 2.62332,-1.82111 1.881476,-1.05373 3.733472,-2.16191 5.644428,-3.16118 0.104886,-0.0548 0.241286,-0.011 0.354248,0.0244 0.512873,0.16045 0.69361,0.72534 0.820528,1.18017 0.115329,0.79553 0.279389,1.5812 0.494609,2.35528 0.21372,1.00285 0.536282,1.97814 0.885344,2.94084 0.448704,1.03498 0.944086,2.04761 1.476118,3.04205 0.550992,1.02131 1.124683,2.02092 1.754794,2.99628 0.542933,1.06019 1.315487,1.96949 1.956673,2.96411 0.611531,0.94486 1.169445,1.92198 1.833911,2.83136 0.591474,0.95564 1.140463,1.93778 1.757339,2.87737 0.59431,1.03555 1.137457,2.09494 1.672101,3.16218 0.542448,1.20594 1.123026,2.39409 1.722019,3.57291 0.53749,1.06778 1.080392,2.13344 1.597776,3.21119 0.306115,0.74187 0.685163,1.46295 0.752168,2.27373 -5.197226,2.98992 -4.196445,3.93857 -7.402933,2.2486 -0.954301,-0.44197 -1.949042,-0.76442 -2.952273,-1.07509 -1.078553,-0.26762 -2.147549,-0.57253 -3.222673,-0.85511 -1.015915,-0.16088 -1.987063,-0.48492 -2.968043,-0.78212 -1.058066,-0.36657 -2.165757,-0.52061 -3.247498,-0.78756 -1.232543,-0.25748 -2.475323,-0.47187 -3.700698,-0.76379 -1.364078,-0.29784 -2.716469,-0.66365 -4.049721,-1.0798 -1.290918,-0.35945 -2.540031,-0.85193 -3.841951,-1.17096 -1.164587,-0.35665 -2.354117,-0.6395 -3.505771,-1.03683 -0.880541,-0.24828 -1.756439,-0.51915 -2.647005,-0.73116 -0.540676,-0.0981 -0.270151,-0.056 -0.811541,-0.12658 0,0 5.027223,-3.5338 5.027223,-3.5338 v 0 c 0.563179,0.10348 0.282052,0.0451 0.843331,0.17535 0.889968,0.24407 1.783326,0.48005 2.658583,0.77312 1.150612,0.36 2.308921,0.69453 3.471183,1.01477 1.294154,0.3609 2.556687,0.82519 3.848827,1.19414 1.331243,0.39075 2.671363,0.75828 4.030631,1.03881 1.23589,0.2609 2.47591,0.50173 3.712242,0.75961 1.10254,0.23483 2.201672,0.47276 3.276309,0.81973 0.973796,0.29917 1.957705,0.54836 2.952636,0.76658 1.079926,0.29301 2.162386,0.57609 3.239762,0.87856 1.024358,0.33522 2.045684,0.67405 3.017694,1.14589 2.906843,1.3711 3.622358,-0.0634 -3.300089,3.79922 0.343183,-0.1744 -0.421479,-1.61619 -0.514975,-1.92308 -0.503234,-1.07885 -1.036957,-2.14417 -1.575212,-3.20578 -0.593839,-1.18106 -1.18142,-2.36571 -1.722221,-3.57223 -0.533524,-1.0421 -1.062376,-2.08356 -1.650016,-3.09667 -0.608756,-0.93295 -1.148021,-1.9088 -1.741363,-2.85168 -0.667136,-0.92115 -1.227711,-1.9085 -1.845476,-2.86257 -0.646639,-0.99045 -1.40997,-1.9054 -1.952184,-2.96498 -0.648467,-0.98528 -1.22487,-2.00377 -1.788445,-3.03874 -0.543116,-1.01992 -1.051777,-2.05715 -1.518113,-3.11461 -0.364654,-0.97243 -0.700371,-1.96046 -0.923576,-2.97586 -0.219771,-0.77724 -0.422672,-1.56387 -0.518821,-2.36683 -0.0159,-0.0831 -0.02992,-0.44898 -0.194728,-0.45673 -0.136388,-0.006 -0.504778,0.20309 -0.387194,0.13368 1.629219,-0.96172 3.271062,-1.90189 4.906592,-2.85283 -0.935503,0.51524 -1.772039,1.17495 -2.660722,1.76407 -0.893466,0.69357 -1.881237,1.25983 -2.708674,2.03214 -0.726911,0.6585 -1.507056,1.25685 -2.208104,1.93998 -0.665655,0.67438 -1.403771,1.26109 -2.084671,1.92108 -0.545687,0.47839 -1.104707,0.92797 -1.614363,1.44296 -0.812903,0.60108 -1.554475,1.29411 -2.37849,1.88388 -1.041985,0.7159 -2.076286,1.44611 -3.048254,2.25661 -1.320546,1.04607 -2.663439,2.06293 -3.971184,3.12529 0,0 -5.690373,2.30601 -5.690373,2.30601 z"
       inkscape:connector-curvature="0" />
    <path
       style="fill:#0000ff;stroke-width:0.26458332"
       id="path54"
       d="m -76.859129,204.65799 c 1.534742,-0.0336 3.058917,0.15643 4.58593,0.28115 1.168228,0.0745 2.326481,0.0909 3.481501,0.28501 1.029444,0.17009 2.071683,0.21866 3.112826,0.24843 0.960983,0.0889 1.872877,0.37719 2.804435,0.60317 0.920687,0.17669 1.859161,0.21193 2.79386,0.23319 0.887664,0.0109 1.775455,0.008 2.663171,0.008 1.008989,0.0292 2.007566,0.23003 3.015266,0.32221 0.834633,0.0338 1.629082,0.31733 2.412661,0.58136 0.789842,0.22567 1.553726,0.54771 2.296285,0.89882 0.667266,0.46868 0.580739,1.1832 0.304204,1.84613 -0.334475,0.69131 -0.794845,1.30778 -1.245542,1.92578 -0.529605,0.7006 -1.093483,1.37772 -1.655738,2.05334 -0.747575,0.91984 -1.625994,1.71522 -2.463287,2.54955 -1.177263,1.18725 -2.406997,2.32017 -3.581358,3.51047 -1.24982,1.29598 -2.515846,2.57551 -3.7105,3.92295 -1.157542,1.26463 -2.211988,2.61643 -3.218098,4.00294 -0.884534,1.23559 -1.727997,2.49997 -2.569636,3.76498 -0.847974,1.28418 -1.777323,2.5118 -2.70686,3.73738 -0.953272,1.29323 -1.894797,2.59465 -2.839217,3.89457 -0.872561,1.3102 -1.783728,2.5946 -2.650823,3.90838 -2.168552,3.24065 -1.159259,1.79716 -6.945503,4.61961 -0.477189,-0.6625 -0.419296,-1.48848 -0.416941,-2.26649 -0.0986,-0.88273 -0.186404,-1.77126 -0.324983,-2.64918 -0.190743,-0.8921 -0.297322,-1.79722 -0.501197,-2.68621 -0.210968,-0.9662 -0.298897,-1.95162 -0.340873,-2.93776 -0.0208,-1.04163 -0.207653,-2.0708 -0.317649,-3.10542 -0.101004,-0.98349 -0.111426,-1.97293 -0.12393,-2.96058 0.04814,-0.9425 -0.114115,-1.86964 -0.234001,-2.80014 -0.07808,-0.96474 -0.188166,-1.92092 -0.339658,-2.87682 -0.115517,-0.96788 -0.244094,-1.93055 -0.405993,-2.89192 -0.108468,-0.90587 -0.238686,-1.80232 -0.414374,-2.69754 -0.101828,-0.77438 -0.227487,-1.53377 -0.411922,-2.2924 -0.170125,-0.70888 -0.177099,-1.43738 -0.343956,-2.146 -0.197337,-0.73463 -0.264811,-1.49156 -0.306766,-2.24816 0.008,-0.71875 -0.23242,-1.40176 -0.288367,-2.11404 0.275495,-2.56673 4.394256,-3.43588 5.892483,-4.28563 0.107471,-0.0609 0.244157,-0.0411 0.36304,-0.0747 0.122748,-0.0347 0.239998,-0.0866 0.36,-0.12985 0.900787,-0.26704 1.850596,-0.31736 2.784319,-0.36145 0.448672,-0.0178 0.897694,-0.0211 1.346636,-0.0248 0,0 -4.964488,3.61734 -4.964488,3.61734 v 0 c -0.442161,0.009 -0.884478,0.0166 -1.325904,0.0458 -0.912042,0.0691 -1.830485,0.16544 -2.687724,0.50731 -0.121643,0.0437 -0.246616,0.079 -0.364924,0.13101 -0.103407,0.0455 -0.395372,0.21859 -0.298381,0.16068 1.649359,-0.98474 3.303833,-1.9609 4.955748,-2.94136 -0.269411,0.13812 -0.475488,0.25077 -0.574026,0.55771 -0.0694,0.71212 0.3121,1.37796 0.265909,2.09409 0.03037,0.71931 0.07437,1.44192 0.258463,2.14144 0.178686,0.71099 0.216326,1.42835 0.343858,2.14909 0.180964,0.77027 0.34622,1.53066 0.415179,2.32144 0.171093,0.90298 0.338532,1.7985 0.413829,2.71612 0.157247,0.96439 0.327054,1.92189 0.408665,2.89667 0.148958,0.96274 0.30675,1.91795 0.349385,2.89315 0.115507,0.95295 0.324713,1.8976 0.267735,2.86233 0.0054,0.97157 0.01474,1.94418 0.09568,2.91302 0.09691,1.04796 0.294066,2.0862 0.334936,3.13688 0.03669,0.94915 0.09191,1.90125 0.294915,2.8321 0.211032,0.90073 0.325874,1.81285 0.510402,2.71953 0.172189,0.90619 0.22174,1.83272 0.386551,2.74159 -0.0058,0.53054 -0.08009,1.15204 0.09135,1.65652 -1.747748,0.9803 -3.495495,1.9606 -5.243243,2.94091 0.296852,-0.12636 0.244261,-0.0683 0.489839,-0.37216 0.344154,-0.42577 0.587566,-0.92558 0.953545,-1.33558 0.849048,-1.33879 1.812182,-2.6013 2.658444,-3.94249 0.924197,-1.31498 1.895909,-2.59369 2.826088,-3.90395 0.910929,-1.23024 1.864977,-2.42907 2.717978,-3.70135 0.831204,-1.27912 1.689213,-2.54162 2.567381,-3.7888 0.988859,-1.41397 2.046902,-2.78187 3.202168,-4.06447 1.190122,-1.35968 2.440522,-2.65948 3.702359,-3.95293 1.154928,-1.19826 2.368397,-2.33262 3.550351,-3.50257 0.817343,-0.83692 1.694159,-1.60811 2.457942,-2.49668 0.569045,-0.65627 1.074849,-1.36068 1.673889,-1.98969 0.40131,-0.63237 0.91548,-1.194 1.261105,-1.85752 0.194842,-0.28904 0.633352,-0.74922 0.178649,-0.97472 -0.729334,-0.33489 -1.480415,-0.61943 -2.251315,-0.84386 -0.753804,-0.24793 -1.528358,-0.43615 -2.323857,-0.47849 -0.990957,-0.11078 -1.979324,-0.2982 -2.979878,-0.26994 -0.89314,0.002 -1.786593,0.009 -2.679361,-0.0228 -0.963514,-0.043 -1.930686,-0.11081 -2.870904,-0.34002 -0.89355,-0.23603 -1.792181,-0.46113 -2.720633,-0.50359 -1.057278,-0.0477 -2.112727,-0.12625 -3.157231,-0.3049 -1.138677,-0.16147 -2.290506,-0.14521 -3.433646,-0.26823 -1.524802,-0.13942 -3.051082,-0.29419 -4.584716,-0.21689 0,0 4.968444,-3.60979 4.968444,-3.60979 z"
       inkscape:connector-curvature="0" />
    <path
       style="fill:#000000;stroke-width:0.26458332"
       id="path56"
       d="m -114.59547,79.561684 c 0.92557,-1.41477 1.7956,-2.861739 2.66274,-4.312447 1.37037,-2.185746 4.94987,-5.692171 7.26279,-4.439017 0.15352,0.08318 0.27486,0.215389 0.4123,0.323082 1.05995,0.945671 1.91656,2.099543 2.80166,3.205224 1.22261,1.475843 2.507887,2.896751 3.715755,4.385161 1.192223,1.426345 2.494481,2.754453 3.683764,4.182989 0.916247,1.168302 1.840611,2.334432 2.724283,3.528009 0.677007,0.839481 1.270754,1.703528 1.619564,2.728296 0.119976,0.293984 0.174956,0.594771 0.206746,0.90782 0,0 -5.513263,2.772376 -5.513263,2.772376 v 0 c 0.0895,-0.252238 -0.0085,-0.468794 -0.07666,-0.722421 -0.294611,-0.976305 -0.877478,-1.771983 -1.499624,-2.570409 -0.863981,-1.191029 -1.772775,-2.352283 -2.679073,-3.51105 -1.190112,-1.428988 -2.481572,-2.768428 -3.669422,-4.199651 -1.21259,-1.48657 -2.5098,-2.898873 -3.73204,-4.377031 -0.85522,-1.044052 -1.67597,-2.165102 -2.74772,-2.996904 -1.77848,-0.645954 -6.83469,3.77313 4.33919,-2.933584 0.13942,-0.08368 -0.30733,0.118198 -0.43764,0.215445 -0.3837,0.286343 -0.57226,0.645547 -0.83663,1.035926 -0.8868,1.426191 -1.72731,2.878987 -2.62027,4.301098 0,0 -5.61645,2.477088 -5.61645,2.477088 z"
       inkscape:connector-curvature="0" />
    <path
       style="fill:#000000;stroke-width:0.26458332"
       id="path58"
       d="m -111.62863,89.881825 c 1.1867,-1.221039 2.45981,-2.350365 3.72593,-3.487039 0.84873,-0.777996 1.72341,-1.527048 2.6182,-2.251337 0.66809,-0.610621 1.33813,-1.22003 2.00095,-1.836861 0.76784,-0.757386 1.55294,-1.490282 2.38468,-2.176807 0.70942,-0.635066 1.352943,-1.339927 2.025061,-2.014455 0.744363,-0.662385 1.485532,-1.328637 2.257764,-1.958557 0.871884,-0.717577 1.734873,-1.446229 2.59453,-2.178474 0.2114,-0.159631 0.388753,-0.35262 0.605957,-0.503613 0,0 5.710187,-2.354992 5.710187,-2.354992 v 0 c -0.181948,0.230822 -0.434808,0.335581 -0.620265,0.570862 -0.903023,0.686178 -1.729777,1.466929 -2.61057,2.182781 -0.768651,0.618468 -1.509186,1.263015 -2.250464,1.914136 -0.736922,0.619484 -1.362646,1.35491 -2.027335,2.050415 -0.82673,0.684125 -1.663647,1.348266 -2.395741,2.138103 -0.65791,0.628335 -1.354108,1.218332 -1.98193,1.874983 -0.894804,0.742855 -1.818344,1.448673 -2.669274,2.242759 -1.2543,1.123778 -2.5474,2.208477 -3.69935,3.4402 0,0 -5.66833,2.347896 -5.66833,2.347896 z"
       inkscape:connector-curvature="0" />
    <path
       style="fill:#000000;stroke-width:0.26458332"
       id="path60"
       d="m -88.9232,96.073509 c 1.001876,-1.384128 2.043205,-2.738927 3.04578,-4.12247 0.640622,-0.881137 1.170308,-1.831814 1.700929,-2.780662 1.373905,-2.313816 6.091992,-5.444112 6.270742,-1.958261 -0.09821,1.071422 -0.320969,2.125345 -0.502349,3.184419 -0.182837,1.510866 -0.313753,3.027193 -0.477795,4.540769 -0.136361,1.231974 -0.194797,2.470327 -0.223613,3.708878 0,0 -5.472154,2.771138 -5.472154,2.771138 v 0 c 0.03313,-1.25959 0.102642,-2.518003 0.23255,-3.771673 0.171037,-1.519311 0.320193,-3.037456 0.451273,-4.560281 0.152847,-1.036696 0.364826,-2.060617 0.49738,-3.099946 0.0483,-0.27623 0.07282,-0.245853 0.01132,-0.509153 -0.01021,-0.04367 -0.08732,-0.103175 -0.04844,-0.125516 1.752,-1.006539 3.547314,-1.935731 5.320969,-2.903598 -0.316563,0.03728 -0.160218,-0.02389 -0.441724,0.241951 -0.622454,0.911942 -1.044072,1.957009 -1.7199,2.839936 -1.005189,1.371442 -2.063258,2.704016 -3.011138,4.116645 0,0 -5.633826,2.427824 -5.633826,2.427824 z"
       inkscape:connector-curvature="0" />
    <path
       style="fill:#000000;stroke-width:0.26458332"
       id="path62"
       d="m -36.077834,139.49562 c 0.792191,-1.71342 1.620454,-3.40932 2.415937,-5.12113 0.487915,-0.9743 0.826606,-2.03082 1.400722,-2.96055 5.126546,-3.28115 5.211189,-4.51608 6.73082,-0.94739 0.76246,1.99143 1.551595,3.97071 2.451269,5.90456 1.127925,2.32718 2.294153,4.64331 3.563876,6.89728 0.829354,1.52076 1.609305,3.06536 2.360046,4.62561 0,0 -5.337709,3.01214 -5.337709,3.01214 v 0 c -0.672375,-1.58029 -1.460737,-3.10333 -2.260512,-4.62278 -1.264524,-2.27346 -2.413587,-4.61375 -3.563744,-6.94618 -0.917577,-1.92667 -1.737865,-3.89504 -2.547233,-5.86906 -0.08591,-0.19031 -0.341347,-0.76247 -0.447271,-0.97573 -0.04282,-0.0862 -0.183785,-0.39623 -0.310808,-0.4631 -0.02516,-0.0132 -0.09737,0.0588 -0.07275,0.0445 1.717813,-0.99121 3.43489,-1.9837 5.152332,-2.97555 -0.770993,0.28216 -1.166654,2.08224 -1.585174,2.75726 -0.807747,1.68704 -1.629529,3.3678 -2.371186,5.08554 0,0 -5.57862,2.55454 -5.57862,2.55454 z"
       inkscape:connector-curvature="0" />
    <path
       style="fill:#000000;stroke-width:0.26458332"
       id="path64"
       d="m -32.285831,151.05723 c 1.296559,-1.7073 2.506887,-3.47801 3.681616,-5.27069 1.200647,-1.74418 2.310626,-3.54705 3.457981,-5.32599 1.006081,-1.60775 2.07122,-3.17769 3.134313,-4.74805 0.56303,-0.88003 1.143591,-1.74854 1.706462,-2.62865 0,0 5.629247,-2.45425 5.629247,-2.45425 v 0 c -0.626167,0.8539 -1.173695,1.7667 -1.756983,2.65051 -1.082218,1.56019 -2.148813,3.13338 -3.159624,4.74071 -1.151221,1.78352 -2.263072,3.59233 -3.474852,5.33614 -1.154727,1.78478 -2.361243,3.53472 -3.584334,5.27245 0,0 -5.633826,2.42782 -5.633826,2.42782 z"
       inkscape:connector-curvature="0" />
    <path
       style="fill:#000000;stroke-width:0.26458332"
       id="path66"
       d="m -12.089161,147.2961 c 1.153464,-0.51573 2.3474412,-1.03248 3.6326261,-0.9168 1.1245181,0.3973 1.0439691,1.21777 0.5571829,2.13307 -0.7798483,1.17645 -1.7527595,2.20821 -2.719742,3.23063 -0.447687,0.56082 -1.326571,1.2724 -1.19684,2.08731 0.314422,0.30208 0.826911,0.2689 1.231326,0.33632 0.354814,0.0591 0.7048683,0.14413 1.058413,0.21044 0.7330413,0.14682 1.3331182,0.49142 1.8848004,0.97874 0,0 -5.2066754,3.25583 -5.2066754,3.25583 v 0 c -0.506201,-0.39145 -1.066284,-0.62408 -1.702964,-0.726 -0.959444,-0.18451 -2.08076,-0.21026 -2.670816,-1.10354 -0.04908,-0.14021 -0.1271,-0.27344 -0.147237,-0.42061 -0.118401,-0.86538 0.623847,-1.66141 1.109901,-2.26793 0.961412,-0.99183 1.918407,-1.99355 2.752863,-3.09694 0.283033,-0.41272 0.996807,-0.96524 0.07726,-1.01358 -1.229483,0.0987 -2.362767,0.60444 -3.456182,1.14947 0,0 4.796085,-3.83641 4.796085,-3.83641 z"
       inkscape:connector-curvature="0" />
    <path
       style="fill:#000000;stroke-width:0.26458332"
       id="path68"
       d="m -43.431433,224.00562 c 0.966438,2.21765 1.750497,4.50794 2.578883,6.7794 0.905354,2.53367 1.773698,5.08185 2.870383,7.54074 0.350739,0.76643 0.799044,1.48062 1.227105,2.2046 0,0 -5.284311,3.05087 -5.284311,3.05087 v 0 c -0.424119,-0.75261 -0.870826,-1.49445 -1.218967,-2.28697 -1.067652,-2.48705 -1.923132,-5.05396 -2.839693,-7.59901 -0.835727,-2.24719 -1.616232,-4.52517 -2.679092,-6.67795 0,0 5.345692,-3.01168 5.345692,-3.01168 z"
       inkscape:connector-curvature="0" />
    <path
       style="fill:#000000;stroke-width:0.26458332"
       id="path70"
       d="m -53.337613,243.67089 c 1.793457,-1.90474 3.599334,-3.7986 5.381228,-5.71431 2.073191,-2.24521 4.285255,-4.35121 6.523784,-6.42888 1.503042,-1.38523 2.984442,-2.79349 4.447823,-4.22048 0.168479,-0.16558 0.336957,-0.33116 0.505433,-0.49674 0,0 5.642708,-2.33114 5.642708,-2.33114 v 0 c -0.170886,0.16752 -0.34177,0.33504 -0.512654,0.50255 -1.486358,1.44369 -2.991464,2.86806 -4.520229,4.26684 -2.246143,2.07078 -4.482396,4.1519 -6.561769,6.39345 -1.74035,1.89876 -3.550992,3.73336 -5.237999,5.68081 0,0 -5.668325,2.3479 -5.668325,2.3479 z"
       inkscape:connector-curvature="0" />
    <path
       style="fill:#000000;stroke-width:0.26458332"
       id="path72"
       d="m -31.444496,239.57163 c 1.269878,-0.32619 2.678277,-0.70907 3.977291,-0.35995 1.170143,0.74654 0.262406,2.03282 -0.340977,2.83712 -0.362251,0.64326 -1.603764,1.34085 -1.619945,2.11849 0.501128,0.92195 0.972992,1.81319 1.190199,2.85141 0.206957,1.34565 -0.272251,2.52296 -1.242785,3.4372 -4.521383,2.79335 -4.499354,3.80473 -8.188984,3.20054 0,0 5.00756,-3.52968 5.00756,-3.52968 v 0 c 0.359963,0.0447 0.730414,0.10531 1.095213,0.0907 1.992929,-0.0799 5.711671,-3.25501 -3.599799,2.50044 1.102246,-0.6409 1.623753,-1.52666 1.522714,-2.821 -0.159163,-1.06125 -0.712086,-1.91206 -1.221652,-2.8356 -0.03781,-0.14028 -0.100542,-0.27614 -0.113419,-0.42086 -0.08289,-0.93149 1.079566,-1.53935 1.548368,-2.19139 0.104648,-0.12092 1.262898,-1.5361 1.152443,-1.63667 -0.05982,-0.0545 -0.151268,-0.0575 -0.226899,-0.0862 -1.280917,-0.13163 -2.578031,0.22098 -3.786518,0.61124 0,0 4.84719,-3.76576 4.84719,-3.76576 z"
       inkscape:connector-curvature="0" />
    <path
       style="fill:#0000ff;stroke-width:0.26458332"
       id="path74"
       d="m -94.604135,122.7039 c 1.325631,0.78923 2.647214,1.58356 4.019113,2.29075 0.692783,0.41772 0.357439,0.22207 1.004726,0.5892 0,0 -5.141923,3.33593 -5.141923,3.33593 v 0 c -0.630126,-0.37785 -0.306284,-0.18396 -0.971568,-0.58159 -1.354524,-0.73992 -2.669508,-1.5511 -4.041066,-2.25846 0,0 5.130718,-3.37583 5.130718,-3.37583 z"
       inkscape:connector-curvature="0" />
    <path
       style="fill:#0000ff;stroke-width:0.26458332"
       id="path76"
       d="m -79.730975,132.37509 c 0.69891,0.55736 0.343194,0.26377 1.065181,0.88314 0,0 -5.176573,3.23395 -5.176573,3.23395 v 0 c -0.728371,-0.59986 -0.361825,-0.31052 -1.098926,-0.86892 0,0 5.210318,-3.24817 5.210318,-3.24817 z"
       inkscape:connector-curvature="0" />
    <path
       style="fill:#0000ff;stroke-width:0.26458332"
       id="path78"
       d="m -72.265372,137.66148 c 0.592851,0.43133 1.225949,0.80147 1.842018,1.19787 0,0 -5.139761,3.29959 -5.139761,3.29959 v 0 c -0.613574,-0.40242 -1.236597,-0.78856 -1.862064,-1.17227 0,0 5.159807,-3.32519 5.159807,-3.32519 z"
       inkscape:connector-curvature="0" />
    <path
       style="fill:#0000ff;stroke-width:0.26458332"
       id="path80"
       d="m -51.041863,171.23119 c -0.212471,1.59155 -0.475697,3.17415 -0.638209,4.77224 -0.07921,0.9287 -0.120447,1.86263 -0.266028,2.7844 0,0 -5.611477,2.58453 -5.611477,2.58453 v 0 c 0.36371,-0.39596 0.322244,-2.11183 0.417693,-2.65651 0.162581,-1.59135 0.428141,-3.16808 0.595868,-4.75744 0,0 5.502153,-2.72722 5.502153,-2.72722 z"
       inkscape:connector-curvature="0" />
    <path
       style="fill:#0000ff;stroke-width:0.26458332"
       id="path82"
       d="m -52.730884,187.79768 c -0.297952,1.24344 -0.467434,2.51222 -0.607618,3.78154 0,0 -5.471221,2.7119 -5.471221,2.7119 v 0 c 0.143153,-1.28104 0.328793,-2.55605 0.548532,-3.82629 0,0 5.530307,-2.66715 5.530307,-2.66715 z"
       inkscape:connector-curvature="0" />
    <path
       style="fill:#0000ff;stroke-width:0.26458332"
       id="path84"
       d="m -55.180438,200.6313 c -0.108376,0.84375 -0.165627,1.69265 -0.226402,2.54074 0,0 -5.439571,2.72344 -5.439571,2.72344 v 0 c 0.05882,-0.84453 0.121878,-1.68879 0.172741,-2.53386 0,0 5.493232,-2.73032 5.493232,-2.73032 z"
       inkscape:connector-curvature="0" />
    <path
       style="fill:#1a1a1a;stroke-width:0.26458332"
       id="path86"
       d="m 72.755177,25.085078 c 1.733225,-0.393899 3.320383,-1.149414 4.840901,-2.046012 -8.114744,4.8898 -4.489569,2.725518 -2.882736,1.283593 0.766398,-0.687741 1.457598,-1.435643 2.149465,-2.196546 1.258596,-1.453527 2.518997,-2.899308 3.574748,-4.50944 0.863664,-1.345699 1.483524,-2.817593 1.949421,-4.341934 0.273502,-1.074584 0.462042,-2.184153 0.418671,-3.2955689 C 82.77,9.1318023 82.367468,8.4518549 81.800911,7.8491497 81.218973,7.3558725 80.54773,7.133556 79.808199,7.0137916 c -0.515681,-0.068161 -1.072325,0.00561 -1.550207,0.2209062 -0.13311,0.059969 -0.512617,0.279672 -0.385736,0.2074542 1.634045,-0.9300527 3.271551,-1.854011 4.907327,-2.7810166 -1.008568,0.6122109 -1.795012,1.491665 -2.556867,2.3767412 -0.925859,1.0389703 -1.595329,2.2557475 -2.283119,3.4553744 -0.762942,1.385611 -1.533223,2.766995 -2.326047,4.1358 -0.728586,1.293837 -1.340501,2.641755 -1.846956,4.035972 -0.489807,1.319162 -0.638683,2.711162 -0.724368,4.104573 -0.178244,1.702096 -0.31636,3.406125 -0.393456,5.11582 -0.04983,1.403392 -0.10358,2.805462 0.04316,4.203827 0.08105,0.999966 0.376648,1.95625 0.770985,2.872851 0.345297,0.873146 0.873017,1.654535 1.326375,2.472433 0.408355,0.629571 0.930786,1.213803 1.588534,1.585855 0.744464,0.344048 1.350889,0.219173 2.031503,-0.179248 -9.176935,5.733452 -4.463814,2.547975 -2.479778,1.00088 1.13456,-0.9026 2.164612,-1.928742 3.117223,-3.019455 0,0 5.626502,-2.380961 5.626502,-2.380961 v 0 c -0.944663,1.120074 -1.959967,2.173089 -3.066219,3.136535 -2.603773,1.950349 -4.68367,3.876855 -8.017431,5.071163 -0.839277,0.247493 -1.631651,0.15876 -2.388486,-0.303218 -0.69341,-0.494726 -1.293233,-1.120931 -1.733444,-1.852946 -0.459105,-0.836486 -1.003594,-1.630841 -1.354119,-2.522633 -0.426228,-0.96834 -0.752028,-1.985274 -0.842738,-3.044859 -0.160324,-1.432298 -0.126931,-2.862599 -0.05448,-4.301728 0.07049,-1.708248 0.182676,-3.414416 0.375727,-5.11368 0.06481,-1.441142 0.17544,-2.884251 0.641242,-4.261728 0.505055,-1.427717 1.089853,-2.810988 1.811038,-4.145754 0.810464,-1.352563 1.570993,-2.734927 2.319803,-4.122337 0.685207,-1.218711 1.328764,-2.474825 2.2357,-3.5485758 0.72602,-0.9273696 1.50426,-1.8379752 2.455905,-2.5410514 2.307339,-1.3310328 4.848593,-3.9433116 7.799374,-3.3861018 0.826405,0.2112947 1.590117,0.5525934 2.205943,1.1613182 0.616809,0.719428 1.120497,1.5172785 1.193725,2.4878117 0.115785,1.1758316 -0.106357,2.3584095 -0.357671,3.5050901 -0.42731,1.578938 -1.044784,3.102942 -1.890022,4.506986 -1.0281,1.661273 -2.284341,3.133867 -3.557191,4.610644 -2.906157,3.2787 -5.19599,5.026948 -9.577427,7.083053 -1.577369,0.867497 -3.242762,1.545767 -5.004488,1.942163 0,0 4.887164,-3.716672 4.887164,-3.716672 z"
       inkscape:connector-curvature="0" />
    <path
       style="fill:#1a1a1a;stroke-width:0.26458332"
       id="path88"
       d="m 83.545528,38.598998 c 1.148128,-0.884023 2.148557,-2.02434 3.412278,-2.755616 1.902378,-1.100844 3.825669,-2.165141 5.738503,-3.247711 1.15375,-0.122727 1.322015,1.002893 1.294329,1.900563 -0.204661,1.41477 -0.527368,2.808989 -0.784101,4.214667 -0.246324,1.497701 -0.275899,3.016443 -0.451136,4.522057 -0.159202,0.996027 -0.191905,2.005934 -0.309599,3.005887 -0.815936,2.614948 -4.137708,3.974076 -6.813868,4.117956 -2.431216,0.145129 -2.675175,1.312048 4.713682,-3.616031 5.29e-4,-2.65e-4 0.57214,-0.0024 0.619908,-0.0026 0.490252,-0.0016 0.241522,-7.94e-4 0.746191,-0.0021 0,0 -4.972812,3.617569 -4.972812,3.617569 v 0 c -0.50714,0.0048 -0.257018,0.0021 -0.750366,0.0083 -0.209918,0.0034 -0.79184,0.144314 -0.629735,0.0109 5.561481,-4.577117 2.741107,-3.434199 5.206307,-3.69079 0.224917,-0.04317 0.860618,-0.294013 0.664001,-0.176567 -1.653027,0.987399 -3.341836,1.914144 -4.992973,2.904694 -0.162595,0.09754 0.386302,-0.09513 0.520787,-0.228798 0.06995,-0.06953 0.108617,-0.164664 0.162925,-0.246994 0.237459,-0.97372 0.130784,-2.014265 0.35677,-2.996092 0.207417,-1.513686 0.243895,-3.038472 0.453638,-4.552526 0.219978,-1.384827 0.536123,-2.752685 0.777666,-4.134062 0.05528,-0.656386 0.278675,-1.255921 -0.606858,-0.841679 1.580409,-0.927608 3.160818,-1.855216 4.74123,-2.782824 -0.214088,0.128976 -0.435412,0.246642 -0.642263,0.386935 -0.989751,0.671282 -1.872874,1.497031 -2.775175,2.276721 0,0 -5.679329,2.308283 -5.679329,2.308283 z"
       inkscape:connector-curvature="0" />
    <path
       style="fill:#1a1a1a;stroke-width:0.26458332"
       id="path90"
       d="m 188.03958,135.66354 c -9.01954,5.48122 -3.19057,1.77527 -1.35283,0.28924 1.04165,-0.84231 1.12952,-0.95444 2.11468,-1.86665 2.26328,-2.09254 3.88659,-4.66304 5.2754,-7.38506 1.17644,-2.62293 1.95486,-5.4014 2.23516,-8.26097 0.0481,-1.64162 -0.18902,-2.9963 -1.4661,-4.09962 -1.2377,-0.79988 -2.49132,-0.52556 -3.79786,-0.0901 -0.24495,0.12004 -0.49671,0.22709 -0.73486,0.36012 -0.26012,0.14531 -1.0191,0.61733 -0.75798,0.47381 1.47103,-0.80854 2.89154,-1.71043 4.38874,-2.46941 0.31506,-0.15971 -0.5641,0.42675 -0.82625,0.66349 -0.68552,0.61905 -0.95567,0.99608 -1.55239,1.71103 -1.89446,2.51144 -2.93415,5.46739 -3.83962,8.44256 -1.11675,3.999 -1.72442,8.12331 -1.99298,12.26094 -0.0259,2.73423 -0.0619,5.55511 0.98851,8.12306 0.80677,1.46201 1.61106,1.60178 3.07055,0.98693 2.48145,-1.4775 -1.18329,0.71022 -3.77093,2.13598 -0.27818,0.15328 0.53407,-0.34421 0.79428,-0.52633 0.72174,-0.50513 1.427,-1.0387 2.14193,-1.55393 2.49855,-1.9007 5.29281,-3.32139 8.00408,-4.90003 0,0 -4.78261,3.86868 -4.78261,3.86868 v 0 c -1.83917,1.02618 -1.90733,1.06682 4.49102,-2.62608 0.15697,-0.0906 -0.30947,0.18912 -0.45834,0.29249 -0.53209,0.36948 -1.0343,0.78426 -1.5902,1.12028 -3.03064,2.24981 -6.14139,4.47769 -9.65864,5.92439 -1.87496,0.3997 -2.6116,-0.10849 -3.54202,-1.76033 -0.12365,-0.31079 -0.27192,-0.61288 -0.37095,-0.93237 -0.74662,-2.40876 -0.58589,-5.01093 -0.62149,-7.49316 0.2728,-4.16802 0.86653,-8.32388 1.91642,-12.37093 0.86896,-3.01816 1.8599,-6.01256 3.6668,-8.62056 0.50232,-0.64945 0.91444,-1.22431 1.49101,-1.80934 2.29235,-2.32598 5.40764,-3.73463 8.37637,-5.02322 1.56317,-0.38836 2.8139,-0.40129 4.16615,0.59754 1.34348,1.30953 1.73219,2.75727 1.67768,4.62004 -0.25598,2.9324 -1.06357,5.77536 -2.19673,8.48909 -1.35007,2.77252 -2.91989,5.41189 -5.16522,7.56674 -3.29301,3.17764 -6.97842,5.62651 -11.09316,7.7133 0,0 4.77238,-3.85158 4.77238,-3.85158 z"
       inkscape:connector-curvature="0" />
    <path
       style="fill:#1a1a1a;stroke-width:0.26458332"
       id="path92"
       d="m 200.81774,141.92175 c 1.3095,-0.66661 2.71549,-0.8544 4.16229,-0.77637 0.83362,0.12237 1.70128,0.63783 1.4543,1.62318 -0.0469,0.18695 -0.16184,0.34985 -0.24276,0.52478 -1.15566,1.41721 -2.81106,2.32092 -4.29202,3.35969 -1.16932,0.88462 -2.53586,1.78089 -3.07306,3.20958 -0.11716,1.01992 1.04313,1.22931 1.81047,1.46084 1.07779,0.38134 2.20306,0.56514 3.32943,0.72947 0,0 -5.01492,3.52061 -5.01492,3.52061 v 0 c -1.13925,-0.20742 -2.27472,-0.43511 -3.37114,-0.81743 -1.13173,-0.40469 -2.23832,-0.89114 -2.29424,-2.25453 0.32249,-1.62837 1.71049,-2.67488 2.97617,-3.62272 1.43791,-1.03986 2.98342,-1.93997 4.31518,-3.11835 0.79509,-0.85855 0.56608,-0.87634 -0.55676,-1.03209 -1.41322,0.003 -2.755,0.34323 -3.99903,1.02975 0,0 4.79609,-3.83641 4.79609,-3.83641 z"
       inkscape:connector-curvature="0" />
    <path
       style="fill:#1a1a1a;stroke-width:0.26458332"
       id="path94"
       d="m 77.379527,257.71905 c 1.934316,-1.25186 3.556598,-2.89699 5.116333,-4.57544 1.855274,-2.04222 3.420232,-4.31876 4.679233,-6.7698 0.93889,-1.97259 1.651137,-4.05178 1.449729,-6.25408 -0.312426,-1.39234 -0.860698,-1.58003 -2.153907,-1.23392 -1.908813,0.78031 -5.181391,2.71218 3.339793,-2.02069 0.247682,-0.13757 -0.481285,0.30002 -0.710158,0.46702 -0.706122,0.51523 -0.828884,0.67505 -1.464593,1.28531 -1.944624,2.13587 -3.313832,4.69566 -4.560371,7.27911 -0.985065,2.18057 -1.745033,4.47969 -2.042586,6.86207 -0.180054,1.44163 -0.127339,1.8445 -0.109702,3.2765 0.224113,2.14118 0.728777,4.40496 2.089566,6.14061 0.197773,0.25225 0.439742,0.46648 0.659614,0.69973 1.071613,1.0069 2.185114,1.61968 3.654869,1.2153 0.575022,-0.11974 0.297225,-0.0939 0.831721,-0.0937 0,0 -4.953693,3.65041 -4.953693,3.65041 v 0 c -0.478685,0.0703 -0.218642,0.0306 -0.77987,0.12081 -1.564371,0.0775 -2.866173,-0.62645 -3.939892,-1.74826 -0.232103,-0.26403 -0.486191,-0.51025 -0.69631,-0.79208 -1.385133,-1.85789 -1.93685,-4.21069 -2.191702,-6.46817 -0.02979,-1.44376 -0.08654,-1.92667 0.07706,-3.38078 0.272751,-2.42433 1.005086,-4.77935 1.971942,-7.0105 1.200698,-2.61982 2.546519,-5.19 4.385845,-7.4271 2.506725,-2.65663 5.814075,-4.75574 9.335978,-5.72864 1.638753,-0.0895 2.261455,0.51635 2.654732,2.08673 0.262577,2.34717 -0.39574,4.46589 -1.365097,6.59256 -1.210802,2.50723 -2.772405,4.82275 -4.606165,6.92042 -1.518341,1.69342 -3.102388,3.35108 -4.964483,4.6732 0,0 -5.707886,2.23334 -5.707886,2.23334 z"
       inkscape:connector-curvature="0" />
    <path
       style="fill:#1a1a1a;stroke-width:0.26458332"
       id="path96"
       d="m 89.724864,263.96294 c 3.112429,-1.87574 6.253956,-4.127 9.97553,-4.4732 1.438376,-0.10384 2.155036,0.32694 1.946606,1.83843 -0.44969,1.25231 -1.38813,2.23252 -2.198109,3.26146 -0.610523,0.91088 -0.714039,0.64828 0.04188,1.06487 1.258829,0.70696 1.779329,1.68325 2.011129,3.07422 0.0747,1.90291 -1.09302,3.22791 -2.559914,4.26431 -3.526684,2.44906 -4.969653,3.49039 -8.412819,3.61664 0,0 4.916951,-3.6168 4.916951,-3.6168 v 0 c 2.926368,-0.24085 4.765382,-1.83536 -2.173772,2.20194 1.416732,-0.79107 2.731608,-1.88478 2.823218,-3.6227 -0.109273,-1.28193 -0.633622,-1.97297 -1.758934,-2.56638 -0.952715,-0.55911 -1.195123,-1.04568 -0.512739,-2.00869 0.782981,-0.9884 1.63985,-1.9278 2.288876,-3.01302 0.03445,-0.0874 0.212781,-0.4758 0.196837,-0.62341 -0.0528,-0.48884 -1.281166,-0.20057 -1.500934,-0.21993 -0.792242,0.13306 -1.552387,0.31816 -2.312799,0.58345 -2.087486,0.72827 -5.683507,2.97177 2.95199,-1.98106 0,0 -5.722998,2.21987 -5.722997,2.21987 z"
       inkscape:connector-curvature="0" />
  </g>
</svg>
